/* XPM */
static char *image[] = {
"48 48 44 1",
"  c None",
"0 c #a2c4ea",
"1 c #9ec4eb",
"2 c #90bbec",
"3 c #81b3ec",
"4 c #8ebcef",
"5 c #9cc7f4",
"6 c #96c3f9",
"7 c #93bdea",
"8 c #a5caed",
"9 c #a4caef",
": c #86b8f0",
"; c #5fa0e9",
"A c #a3c9ed",
"B c #a1c8ee",
"C c #60a0ea",
"D c #7bb0eb",
"E c #7db1ec",
"F c #83b4eb",
"G c #81b5eb",
"H c #84b6ec",
"I c #6ca6ea",
"J c #82b5eb",
"K c #85b6eb",
"L c #81b4eb",
"M c #75adea",
"N c #6ba6ea",
"O c #7db1eb",
"P c #5196e8",
"Q c #84b5ec",
"R c #a2c9ee",
"S c #69a5e9",
"T c #458fe7",
"U c #74acea",
"V c #9bc4ee",
"W c #a4caee",
"X c #a1c8ed",
"Y c #8dbcec",
"Z c #5699e8",
"a c #428de7",
"b c #448de5",
"c c #438ee6",
"d c #438de6",
"e c #438ce6",
"                                                ",
"                                                ",
"                                                ",
"                                                ",
"                                                ",
"      eddddddddddd                              ",
"     eddddddddddddd                             ",
"     ddddddddddddddc                            ",
"     ddddddddddddddd                            ",
"    bddddddddddddddddddddddddddddddddddda       ",
"    bddddddddddddddddddddddddddddddddddddd      ",
"    bdddddddddddddddddddddddddddddddddddddd     ",
"    bdddddddddddddddddZYXWWWWWWWWWWWWWWWVUT     ",
"    bddddddddddddddddSRWWWWWWWWWWWWWWWWWWWQ     ",
"    bddddddddddddddPOWWWWWWWWWWWWWWWWWWWWWWN    ",
"    bTMVWWWWWWWWWWWWWWWWWWWWWWWWWWWWWWWWWWWL    ",
"    bKWWWWWWWWWWWWWWWWWWWWWWWWWWWWWWWWWWWWWJ    ",
"    IWWWWWWWWWWWWWWWWWWWWWWWWWWWWWWWWWWWWWWH    ",
"    GWWWWWWWWWWWWWWWWWWWWWWWWWWWWWWWWWWWWWWF    ",
"    QWWWWWWWWWWWWWWWWWWWWWWWWWWWWWWWWWWWWWWF    ",
"    HWWWWWWWWWWWWWWWWWWWWWWWWWWWWWWWWWWWWWWF    ",
"    FWWWWWWWWWWWWWWWWWWWWWWWWWWWWWWWWWWWWWWF    ",
"    FWWWWWWWWWWWWWWWWWWWWWWWWWWWWWWWWWWWWWWF    ",
"    FWWWWWWWWWWWWWWWWWWWWWWWWWWWWWWWWWWWWWWF    ",
"    FWWWWWWWWWWWWWWWWWWWWWWWWWWWWWWWWWWWWWWF    ",
"    FWWWWWWWWWWWWWWWWWWWWWWWWWWWWWWWWWWWWWWF    ",
"    FWWWWWWWWWWWWWWWWWWWWWWWWWWWWWWWWWWWWWWF    ",
"    FWWWWWWWWWWWWWWWWWWWWWWWWWWWWWWWWWWWWWWF    ",
"    FWWWWWWWWWWWWWWWWWWWWWWWWWWWWWWWWWWWWWWF    ",
"    FWWWWWWWWWWWWWWWWWWWWWWWWWWWWWWWWWWWWWWF    ",
"    FWWWWWWWWWWWWWWWWWWWWWWWWWWWWWWWWWWWWWWF    ",
"    FWWWWWWWWWWWWWWWWWWWWWWWWWWWWWWWWWWWWWWF    ",
"    FWWWWWWWWWWWWWWWWWWWWWWWWWWWWWWWWWWWWWWF    ",
"    FWWWWWWWWWWWWWWWWWWWWWWWWWWWWWWWWWWWWWWF    ",
"    FWWWWWWWWWWWWWWWWWWWWWWWWWWWWWWWWWWWWWWF    ",
"    FWWWWWWWWWWWWWWWWWWWWWWWWWWWWWWWWWWWWWWF    ",
"    FWWWWWWWWWWWWWWWWWWWWWWWWWWWWWWWWWWWWWWF    ",
"    FWWWWWWWWWWWWWWWWWWWWWWWWWWWWWWWWWWWWWWF    ",
"    FWWWWWWWWWWWWWWWWWWWWWWWWWWWWWWWWWWWWWWF    ",
"    HWWWWWWWWWWWWWWWWWWWWWWWWWWWWWWWWWWWWWWH    ",
"    EWWWWWWWWWWWWWWWWWWWWWWWWWWWWWWWWWWWWWWD    ",
"    CBWWWWWWWWWWWWWWWWWWWWWWWWWWWWWWWWWWWWA;    ",
"     :9WWWWWWWWWWWWWWWWWWWWWWWWWWWWWWWWWW87     ",
"      654333333333333333333333333333333210      ",
"                                                ",
"                                                ",
"                                                ",
"                                                "};
