/* XPM */
static char *image[] = {
"64 64 65 2",
"   c None",
"00 c #869097",
"10 c #858f96",
"20 c #a7b1b7",
"30 c #a2abb2",
"40 c #78838b",
"50 c #758087",
"60 c #78838a",
"70 c #9fa9b0",
"80 c #889298",
"90 c #c9cfd4",
":0 c #a7afb4",
";0 c #869198",
"A0 c #a7afb5",
"B0 c #a9b0b5",
"C0 c #c8cfd3",
"D0 c #c8d0d3",
"E0 c #a1aab0",
"F0 c #adb4b8",
"G0 c #67737b",
"H0 c #5b6971",
"I0 c #d9dcdf",
"J0 c #b5bcc0",
"K0 c #273843",
"L0 c #bac0c5",
"M0 c #3f4e59",
"N0 c #9da5aa",
"O0 c #f0f2f4",
"P0 c #e8ebec",
"Q0 c #7d878f",
"R0 c #283943",
"S0 c #5c6971",
"T0 c #d9dce0",
"U0 c #bec3c8",
"V0 c #42505b",
"W0 c #31414b",
"X0 c #a1aaaf",
"Y0 c #e9ecee",
"Z0 c #848d94",
"a0 c #647079",
"b0 c #dee1e4",
"c0 c #35454f",
"d0 c #67737c",
"e0 c #dfe3e6",
"f0 c #f1f3f5",
"g0 c #364650",
"h0 c #aeb4b9",
"i0 c #3a4a53",
"j0 c #a0a9af",
"k0 c #394953",
"l0 c #263742",
"m0 c #384852",
"n0 c #9fa8ae",
"o0 c #cdd4d7",
"p0 c #bec5ca",
"q0 c #a9b1b9",
"r0 c #bec5cb",
"s0 c #d2d8dc",
"t0 c #cdd4d8",
"u0 c #bfc6cb",
"v0 c #aab1b9",
"w0 c #a8b0b8",
"x0 c #a7b0b7",
"y0 c #a6b0b7",
"z0 c #a7afb7",
"                                                                                                                                ",
"                                                                                                                                ",
"                                                                                                                                ",
"                                                                                                                                ",
"                                                                                                                                ",
"            z0y0x0x0x0x0x0x0x0x0x0x0x0x0x0x0x0x0x0x0x0x0x0x0x0x0x0x0x0x0x0x0x0x0x0x0x0x0x0x0x0x0x0x0x0x0x0x0x0x0y0w0            ",
"          v0u0t0s0s0s0s0s0s0s0s0s0s0s0s0s0s0s0s0s0s0s0s0s0s0s0s0s0s0s0s0s0s0s0s0s0s0s0s0s0s0s0s0s0s0s0s0s0s0s0s0t0r0q0          ",
"        z0u0s0s0s0s0s0s0s0s0s0s0s0s0s0s0s0s0s0s0s0s0s0s0s0s0s0s0s0s0s0s0s0s0s0s0s0s0s0s0s0s0s0s0s0s0s0s0s0s0s0s0s0s0p0z0        ",
"        y0o0s0s0s0s0s0s0s0s0s0s0s0s0s0s0s0s0s0s0s0s0s0s0s0s0s0s0s0s0s0s0s0s0s0s0s0s0s0s0s0s0s0s0s0s0s0s0s0s0s0s0s0s0t0x0        ",
"        x0s0s0s0n0m0l0l0l0l0l0l0l0l0l0l0l0l0l0l0l0l0l0l0l0l0l0l0l0l0l0l0l0l0l0l0l0l0l0l0l0l0l0l0l0l0l0l0l0l0k0j0s0s0s0x0        ",
"        x0s0s0s0k0l0l0l0l0l0l0l0l0l0l0l0l0l0l0l0l0l0l0l0l0l0l0l0l0l0l0l0l0l0l0l0l0l0l0l0l0l0l0l0l0l0l0l0l0l0l0i0s0s0s0x0        ",
"        x0s0s0s0l0l0l0l0l0l0l0l0l0l0l0l0l0l0l0l0l0l0l0l0l0l0l0l0l0l0l0l0l0l0l0l0l0l0l0l0l0l0l0l0l0l0l0l0l0l0l0l0s0s0s0x0        ",
"        x0s0s0s0l0l0l0l0l0l0l0l0l0l0l0l0l0l0l0l0l0l0l0l0l0l0l0l0l0l0l0l0l0l0l0l0l0l0l0l0l0l0l0l0l0l0l0l0l0l0l0l0s0s0s0x0        ",
"        x0s0s0s0l0l0l0l0l0l0l0l0l0l0l0l0l0l0l0l0l0l0l0l0l0l0l0l0l0l0l0l0l0l0l0l0l0l0l0l0l0l0l0l0l0l0l0l0l0l0l0l0s0s0s0x0        ",
"        x0s0s0s0l0l0l0l0l0l0h0g0l0l0l0l0l0l0l0l0l0l0l0l0l0l0l0l0l0l0l0l0l0l0l0l0l0l0l0l0l0l0l0l0l0l0l0l0l0l0l0l0s0s0s0x0        ",
"        x0s0s0s0l0l0l0l0l0l0f0e0d0l0l0l0l0l0l0l0l0l0l0l0l0l0l0l0l0l0l0l0l0l0l0l0l0l0l0l0l0l0l0l0l0l0l0l0l0l0l0l0s0s0s0x0        ",
"        x0s0s0s0l0l0l0l0l0l0f0f0f0h0c0l0l0l0l0l0l0l0l0l0l0l0l0l0l0l0l0l0l0l0l0l0l0l0l0l0l0l0l0l0l0l0l0l0l0l0l0l0s0s0s0x0        ",
"        x0s0s0s0l0l0l0l0l0l0f0f0f0f0b0a0l0l0l0l0l0l0l0l0l0l0l0l0l0l0l0l0l0l0l0l0l0l0l0l0l0l0l0l0l0l0l0l0l0l0l0l0s0s0s0x0        ",
"        x0s0s0s0l0l0l0l0l0l0Z0Y0f0f0f0f0X0W0l0l0l0l0l0l0l0l0l0l0l0l0l0l0l0l0l0l0l0l0l0l0l0l0l0l0l0l0l0l0l0l0l0l0s0s0s0x0        ",
"        x0s0s0s0l0l0l0l0l0l0l0V0U0f0f0f0f0T0S0l0l0l0l0l0l0l0l0l0l0l0l0l0l0l0l0l0l0l0l0l0l0l0l0l0l0l0l0l0l0l0l0l0s0s0s0x0        ",
"        x0s0s0s0l0l0l0l0l0l0l0l0R0Q0P0f0f0f0O0N0l0l0l0l0l0l0l0l0l0l0l0l0l0l0l0l0l0l0l0l0l0l0l0l0l0l0l0l0l0l0l0l0s0s0s0x0        ",
"        x0s0s0s0l0l0l0l0l0l0l0l0l0l0M0L0f0f0f0f0l0l0l0l0l0l0l0l0l0l0l0l0l0l0l0l0l0l0l0l0l0l0l0l0l0l0l0l0l0l0l0l0s0s0s0x0        ",
"        x0s0s0s0l0l0l0l0l0l0l0l0l0l0l0K0J0f0f0f0l0l0l0l0l0l0l0l0l0l0l0l0l0l0l0l0l0l0l0l0l0l0l0l0l0l0l0l0l0l0l0l0s0s0s0x0        ",
"        x0s0s0s0l0l0l0l0l0l0l0l0l0l0M0L0f0f0f0f0l0l0l0l0l0l0l0l0l0l0l0l0l0l0l0l0l0l0l0l0l0l0l0l0l0l0l0l0l0l0l0l0s0s0s0x0        ",
"        x0s0s0s0l0l0l0l0l0l0l0l0R0Q0P0f0f0f0O0N0l0l0l0l0l0l0l0l0l0l0l0l0l0l0l0l0l0l0l0l0l0l0l0l0l0l0l0l0l0l0l0l0s0s0s0x0        ",
"        x0s0s0s0l0l0l0l0l0l0l0V0U0f0f0f0f0I0H0l0l0l0l0l0l0l0l0l0l0l0l0l0l0l0l0l0l0l0l0l0l0l0l0l0l0l0l0l0l0l0l0l0s0s0s0x0        ",
"        x0s0s0s0l0l0l0l0l0l0Z0Y0f0f0f0f0X0W0l0l0l0l0l0l0l0l0l0l0l0l0l0l0l0l0l0l0l0l0l0l0l0l0l0l0l0l0l0l0l0l0l0l0s0s0s0x0        ",
"        x0s0s0s0l0l0l0l0l0l0f0f0f0f0b0a0l0l0l0l0l0l0l0l0l0l0l0l0l0l0l0l0l0l0l0l0l0l0l0l0l0l0l0l0l0l0l0l0l0l0l0l0s0s0s0x0        ",
"        x0s0s0s0l0l0l0l0l0l0f0f0f0h0c0l0l0l0l0l0l0l0l0l0l0l0l0l0l0l0l0l0l0l0l0l0l0l0l0l0l0l0l0l0l0l0l0l0l0l0l0l0s0s0s0x0        ",
"        x0s0s0s0l0l0l0l0l0l0f0e0G0l0l0l0l0l0l0l0l0l0l0l0l0l0l0l0l0l0l0l0l0l0l0l0l0l0l0l0l0l0l0l0l0l0l0l0l0l0l0l0s0s0s0x0        ",
"        x0s0s0s0l0l0l0l0l0l0F0g0l0l0l0l0l0l0l0l0l0l0l0l0l0l0l0l0l0l0l0l0l0l0l0l0l0l0l0l0l0l0l0l0l0l0l0l0l0l0l0l0s0s0s0x0        ",
"        x0s0s0s0l0l0l0l0l0l0l0l0l0l0l0l0l0l0l0l0l0l0l0l0l0l0l0l0l0l0l0l0l0l0l0l0l0l0l0l0l0l0l0l0l0l0l0l0l0l0l0l0s0s0s0x0        ",
"        x0s0s0s0l0l0l0l0l0l0l0l0l0l0l0l0l0l0l0l0l0l0l0l0l0l0l0l0l0l0l0l0l0l0l0l0l0l0l0l0l0l0l0l0l0l0l0l0l0l0l0l0s0s0s0x0        ",
"        x0s0s0s0l0l0l0l0l0l0l0l0l0l0l0l0l0l0l0l0l0l0l0l0l0l0l0l0l0l0l0l0l0l0l0l0l0l0l0l0l0l0l0l0l0l0l0l0l0l0l0l0s0s0s0x0        ",
"        x0s0s0s0l0l0l0l0l0l0l0l0l0l0l0l0l0l0l0l0l0l0f0f0f0f0f0f0f0f0f0f0f0f0f0f0l0l0l0l0l0l0l0l0l0l0l0l0l0l0l0l0s0s0s0x0        ",
"        x0s0s0s0l0l0l0l0l0l0l0l0l0l0l0l0l0l0l0l0l0l0f0f0f0f0f0f0f0f0f0f0f0f0f0f0l0l0l0l0l0l0l0l0l0l0l0l0l0l0l0l0s0s0s0x0        ",
"        x0s0s0s0l0l0l0l0l0l0l0l0l0l0l0l0l0l0l0l0l0l0f0f0f0f0f0f0f0f0f0f0f0f0f0f0l0l0l0l0l0l0l0l0l0l0l0l0l0l0l0l0s0s0s0x0        ",
"        x0s0s0s0l0l0l0l0l0l0l0l0l0l0l0l0l0l0l0l0l0l0f0f0f0f0f0f0f0f0f0f0f0f0f0f0l0l0l0l0l0l0l0l0l0l0l0l0l0l0l0l0s0s0s0x0        ",
"        x0s0s0s0l0l0l0l0l0l0l0l0l0l0l0l0l0l0l0l0l0l0l0l0l0l0l0l0l0l0l0l0l0l0l0l0l0l0l0l0l0l0l0l0l0l0l0l0l0l0l0l0s0s0s0x0        ",
"        x0s0s0s0l0l0l0l0l0l0l0l0l0l0l0l0l0l0l0l0l0l0l0l0l0l0l0l0l0l0l0l0l0l0l0l0l0l0l0l0l0l0l0l0l0l0l0l0l0l0l0l0s0s0s0x0        ",
"        x0s0s0s0l0l0l0l0l0l0l0l0l0l0l0l0l0l0l0l0l0l0l0l0l0l0l0l0l0l0l0l0l0l0l0l0l0l0l0l0l0l0l0l0l0l0l0l0l0l0l0l0s0s0s0x0        ",
"        x0s0s0s0l0l0l0l0l0l0l0l0l0l0l0l0l0l0l0l0l0l0l0l0l0l0l0l0l0l0l0l0l0l0l0l0l0l0l0l0l0l0l0l0l0l0l0l0l0l0l0l0s0s0s0x0        ",
"        x0s0s0s0l0l0l0l0l0l0l0l0l0l0l0l0l0l0l0l0l0l0l0l0l0l0l0l0l0l0l0l0l0l0l0l0l0l0l0l0l0l0l0l0l0l0l0l0l0l0l0l0s0s0s0x0        ",
"        x0s0s0s0l0l0l0l0l0l0l0l0l0l0l0l0l0l0l0l0l0l0l0l0l0l0l0l0l0l0l0l0l0l0l0l0l0l0l0l0l0l0l0l0l0l0l0l0l0l0l0l0s0s0s0x0        ",
"        x0s0s0s0l0l0l0l0l0l0l0l0l0l0l0l0l0l0l0l0l0l0l0l0l0l0l0l0l0l0l0l0l0l0l0l0l0l0l0l0l0l0l0l0l0l0l0l0l0l0l0l0s0s0s0x0        ",
"        x0s0s0s0l0l0l0l0l0l0l0l0l0l0l0l0l0l0l0l0l0l0l0l0l0l0l0l0l0l0l0l0l0l0l0l0l0l0l0l0l0l0l0l0l0l0l0l0l0l0l0l0s0s0s0x0        ",
"        x0s0s0s0l0l0l0l0l0l0l0l0l0l0l0l0l0l0l0l0l0l0l0l0l0l0l0l0l0l0l0l0l0l0l0l0l0l0l0l0l0l0l0l0l0l0l0l0l0l0l0l0s0s0s0x0        ",
"        x0s0s0s0l0l0l0l0l0l0l0l0l0l0l0l0l0l0l0l0l0l0l0l0l0l0l0l0l0l0l0l0l0l0l0l0l0l0l0l0l0l0l0l0l0l0l0l0l0l0l0l0s0s0s0x0        ",
"        x0s0s0s0l0l0l0l0l0l0l0l0l0l0l0l0l0l0l0l0l0l0l0l0l0l0l0l0l0l0l0l0l0l0l0l0l0l0l0l0l0l0l0l0l0l0l0l0l0l0l0l0s0s0s0x0        ",
"        x0s0s0s0l0l0l0l0l0l0l0l0l0l0l0l0l0l0l0l0l0l0l0l0l0l0l0l0l0l0l0l0l0l0l0l0l0l0l0l0l0l0l0l0l0l0l0l0l0l0l0l0s0s0s0x0        ",
"        x0s0s0s0l0l0l0l0l0l0l0l0l0l0l0l0l0l0l0l0l0l0l0l0l0l0l0l0l0l0l0l0l0l0l0l0l0l0l0l0l0l0l0l0l0l0l0l0l0l0l0l0s0s0s0x0        ",
"        x0s0s0s0k0l0l0l0l0l0l0l0l0l0l0l0l0l0l0l0l0l0l0l0l0l0l0l0l0l0l0l0l0l0l0l0l0l0l0l0l0l0l0l0l0l0l0l0l0l0l0i0s0s0s0x0        ",
"        x0s0s0s0j0k0l0l0l0l0l0l0l0l0l0l0l0l0l0l0l0l0l0l0l0l0l0l0l0l0l0l0l0l0l0l0l0l0l0l0l0l0l0l0l0l0l0l0l0l0i0E0s0s0s0x0        ",
"        x0D0s0s0s0s0s0s0s0s0s0s0s0s0s0s0s0s0s0s0s0s0s0s0s0s0s0s0s0s0s0s0s0s0s0s0s0s0s0s0s0s0s0s0s0s0s0s0s0s0s0s0s0s0C0x0        ",
"        x0B0s0s0s0s0s0s0s0s0s0s0s0s0s0s0s0s0s0s0s0s0s0s0s0s0s0s0s0s0s0s0s0s0s0s0s0s0s0s0s0s0s0s0s0s0s0s0s0s0s0s0s0s0A0x0        ",
"        y0;0:090s0s0s0s0s0s0s0s0s0s0s0s0s0s0s0s0s0s0s0s0s0s0s0s0s0s0s0s0s0s0s0s0s0s0s0s0s0s0s0s0s0s0s0s0s0s0s0s090:080x0        ",
"        w070605050505050505050505050505050505050505050505050505050505050505050505050505050505050505050505050505050403020        ",
"          w070106050505050505050505050505050505050505050505050505050505050505050505050505050505050505050505050600030x0          ",
"            x0x0x0x0x0x0x0x0x0x0x0x0x0x0x0x0x0x0x0x0x0x0x0x0x0x0x0x0x0x0x0x0x0x0x0x0x0x0x0x0x0x0x0x0x0x0x0x0x0x0x020            ",
"                                                                                                                                ",
"                                                                                                                                ",
"                                                                                                                                ",
"                                                                                                                                ",
"                                                                                                                                "};
